0
SECTION
2
HEADER
9
$INSUNITS
70
4
9
$ACADVER
1
AC1014
9
$HANDSEED
5
FFFF
0
ENDSEC
0
SECTION
2
TABLES
0
TABLE
2
VPORT
5
8
100
AcDbSymbolTable
0
ENDTAB
0
TABLE
2
LTYPE
5
5
100
AcDbSymbolTable
0
LTYPE
5
14
100
AcDbSymbolTableRecord
100
AcDbLinetypeTableRecord
2
BYBLOCK
70
0
0
LTYPE
5
15
100
AcDbSymbolTableRecord
100
AcDbLinetypeTableRecord
2
BYLAYER
70
0
0
LTYPE
5
16
100
AcDbSymbolTableRecord
100
AcDbLinetypeTableRecord
2
DASHED
70
0
3
Dashed __ __ __ __ __ __ __ __ __ __ __ __ __ _
72
65
73
2
40
0.75
49
0.5
74
0
49
-0.25
74
0
0
ENDTAB
0
TABLE
2
LAYER
5
2
100
AcDbSymbolTable
70
2
0
LAYER
5
50
100
AcDbSymbolTableRecord
100
AcDbLayerTableRecord
2
0
70
0
62
7
6
CONTINUOUS
0
ENDTAB
0
TABLE
2
STYLE
5
3
100
AcDbSymbolTable
70
1
0
STYLE
5
11
100
AcDbSymbolTableRecord
100
AcDbTextStyleTableRecord
2
STANDARD
70
0
0
ENDTAB
0
TABLE
2
VIEW
5
6
100
AcDbSymbolTable
70
0
0
ENDTAB
0
TABLE
2
UCS
5
7
100
AcDbSymbolTable
70
0
0
ENDTAB
0
TABLE
2
APPID
5
9
100
AcDbSymbolTable
70
2
0
APPID
5
12
100
AcDbSymbolTableRecord
100
AcDbRegAppTableRecord
2
ACAD
70
0
0
ENDTAB
0
TABLE
2
DIMSTYLE
5
A
100
AcDbSymbolTable
70
1
0
ENDTAB
0
TABLE
2
BLOCK_RECORD
5
1
100
AcDbSymbolTable
70
1
0
BLOCK_RECORD
5
1F
100
AcDbSymbolTableRecord
100
AcDbBlockTableRecord
2
*MODEL_SPACE
0
BLOCK_RECORD
5
1B
100
AcDbSymbolTableRecord
100
AcDbBlockTableRecord
2
*PAPER_SPACE
0
ENDTAB
0
ENDSEC
0
SECTION
2
BLOCKS
0
BLOCK
5
20
100
AcDbEntity
100
AcDbBlockBegin
2
*MODEL_SPACE
0
ENDBLK
5
21
100
AcDbEntity
100
AcDbBlockEnd
0
BLOCK
5
1C
100
AcDbEntity
100
AcDbBlockBegin
2
*PAPER_SPACE
0
ENDBLK
5
1D
100
AcDbEntity
100
AcDbBlockEnd
0
ENDSEC
0
SECTION
2
ENTITIES
0
LWPOLYLINE
5
100
100
AcDbEntity
8
0
100
AcDbPolyline
90
32
70
1
43
0.0
10
-408.69999999995548
20
-20.000000000489301
42
0.41421356238610729
10
-409.70000000000005
20
-21.000000000489301
10
-409.69999999999999
20
-388.69999999999999
42
0.41421356237313667
10
-408.70000000000005
20
-389.69999999999999
10
-390.69999999999999
20
-389.69999999999993
42
-0.41421356237309503
10
-389.69999999999999
20
-390.69999999999993
10
-389.69999999999999
20
-408.69999999999999
42
0.41421356237313667
10
-388.70000000000005
20
-409.69999999999999
10
-215.99999999999972
20
-409.69999999999999
42
0.41421356237293894
10
-214.99999999999969
20
-408.7000000000005
10
-214.99999999999318
20
-390.55000000002735
42
-0.41421356238026452
10
-213.99999999996834
20
-389.55000000002769
10
-195.69999999996836
20
-389.55000000048193
42
-0.41421356236592555
10
-194.69999999999317
20
-390.55000000048233
10
-194.69999999999956
20
-408.69999999999959
42
0.41421356237319906
10
-193.69999999999953
20
-409.69999999999999
10
-21.000000000000014
20
-409.69999999999999
42
0.41421356237312495
10
-20.000000000000039
20
-408.70000000000005
10
-20.000000000000014
20
-390.69999999999999
42
-0.41421356237309503
10
-19
20
-389.69999999999999
10
-1.0000000000000009
20
-389.69999999999999
42
0.41421356237302526
10
5.9119376061289586e-14
20
-388.70000000000005
10
0
20
-20.999999999999943
42
0.41421356237308449
10
-1.0000000000000011
20
-19.999999999999979
10
-18.999999999999993
20
-19.999999999999996
42
-0.41421356237309503
10
-19.999999999999996
20
-18.999999999999996
10
-19.999999999999996
20
-0.99999999999999867
42
0.41421356237309276
10
-20.999999999999996
20
3.3306690738754696e-15
10
-388.69999999999879
20
0
42
0.41421356237341944
10
-389.69999999999879
20
-1.000000000001112
10
-389.69999999997873
20
-19.000000001288853
42
-0.41421356238644874
10
-390.70000000002324
20
-20.000000001289969
0
CIRCLE
5
101
100
AcDbEntity
8
0
100
AcDbCircle
10
-235.15000000000001
20
-399.85000000000002
30
0
40
2.7499999999999858
210
0
220
-0
230
1
0
CIRCLE
5
102
100
AcDbEntity
8
0
100
AcDbCircle
10
-369.54999999999995
20
-399.85000000000002
30
0
40
2.7499999999999858
210
0
220
-0
230
1
0
CIRCLE
5
103
100
AcDbEntity
8
0
100
AcDbCircle
10
-174.54999999999998
20
-399.85000000000002
30
0
40
2.7500000000000036
210
0
220
-0
230
1
0
CIRCLE
5
104
100
AcDbEntity
8
0
100
AcDbCircle
10
-40.150000000000013
20
-399.85000000000002
30
0
40
2.7500000000000036
210
0
220
-0
230
1
0
CIRCLE
5
105
100
AcDbEntity
8
0
100
AcDbCircle
10
-399.85000000000002
20
-369.69999999999999
30
0
40
2.7499999999999858
210
0
220
-0
230
1
0
CIRCLE
5
106
100
AcDbEntity
8
0
100
AcDbCircle
10
-399.85000000000002
20
-287.27499999999998
30
0
40
2.7499999999999858
210
0
220
-0
230
1
0
CIRCLE
5
107
100
AcDbEntity
8
0
100
AcDbCircle
10
-399.85000000000002
20
-204.84999999999999
30
0
40
2.7499999999999858
210
0
220
-0
230
1
0
CIRCLE
5
108
100
AcDbEntity
8
0
100
AcDbCircle
10
-399.85000000000002
20
-122.425
30
0
40
2.7499999999999858
210
0
220
-0
230
1
0
CIRCLE
5
109
100
AcDbEntity
8
0
100
AcDbCircle
10
-399.85000000000002
20
-39.999999999999993
30
0
40
2.7499999999999858
210
0
220
-0
230
1
0
CIRCLE
5
110
100
AcDbEntity
8
0
100
AcDbCircle
10
-369.69999999999999
20
-9.8499999999994809
30
0
40
2.7500000000000036
210
0
220
-0
230
1
0
CIRCLE
5
111
100
AcDbEntity
8
0
100
AcDbCircle
10
-287.27499999999998
20
-9.8499999999996106
30
0
40
2.7500000000000036
210
0
220
-0
230
1
0
CIRCLE
5
112
100
AcDbEntity
8
0
100
AcDbCircle
10
-204.84999999999999
20
-9.8499999999997421
30
0
40
2.7500000000000036
210
0
220
-0
230
1
0
CIRCLE
5
113
100
AcDbEntity
8
0
100
AcDbCircle
10
-122.42500000000001
20
-9.8499999999998717
30
0
40
2.7500000000000036
210
0
220
-0
230
1
0
CIRCLE
5
114
100
AcDbEntity
8
0
100
AcDbCircle
10
-40.000000000000014
20
-9.8500000000000014
30
0
40
2.7500000000000036
210
0
220
-0
230
1
0
CIRCLE
5
115
100
AcDbEntity
8
0
100
AcDbCircle
10
-9.8500000000000014
20
-369.69999999999999
30
0
40
2.7499999999999991
210
0
220
-0
230
1
0
CIRCLE
5
116
100
AcDbEntity
8
0
100
AcDbCircle
10
-9.8499999999999943
20
-287.27499999999998
30
0
40
2.7499999999999991
210
0
220
-0
230
1
0
CIRCLE
5
117
100
AcDbEntity
8
0
100
AcDbCircle
10
-9.849999999999989
20
-204.84999999999999
30
0
40
2.7499999999999991
210
0
220
-0
230
1
0
CIRCLE
5
118
100
AcDbEntity
8
0
100
AcDbCircle
10
-9.8499999999999837
20
-122.425
30
0
40
2.7499999999999991
210
0
220
-0
230
1
0
CIRCLE
5
119
100
AcDbEntity
8
0
100
AcDbCircle
10
-9.8499999999999766
20
-40
30
0
40
2.7499999999999991
210
0
220
-0
230
1
0
CIRCLE
5
120
100
AcDbEntity
8
0
100
AcDbCircle
10
-352.34999999999911
20
-26.349999999999824
30
0
40
1.7499999999999716
210
0
220
-0
230
1
0
CIRCLE
5
121
100
AcDbEntity
8
0
100
AcDbCircle
10
-220.34999999999974
20
-375.44999999999993
30
0
40
1.7500000000000071
210
0
220
-0
230
1
0
CIRCLE
5
122
100
AcDbEntity
8
0
100
AcDbCircle
10
-26.350000000000627
20
-57.349999999998801
30
0
40
1.749999999999998
210
0
220
-0
230
1
0
CIRCLE
5
123
100
AcDbEntity
8
0
100
AcDbCircle
10
-57.349999999999966
20
-26.350000000000541
30
0
40
1.749999999999998
210
0
220
-0
230
1
0
CIRCLE
5
124
100
AcDbEntity
8
0
100
AcDbCircle
10
-189.34999999999974
20
-375.4500000000001
30
0
40
1.7500000000000071
210
0
220
-0
230
1
0
CIRCLE
5
125
100
AcDbEntity
8
0
100
AcDbCircle
10
-281.34999999999997
20
-377.35000000000002
30
0
40
7.9999999999999716
210
0
220
-0
230
1
0
CIRCLE
5
126
100
AcDbEntity
8
0
100
AcDbCircle
10
-383.3500000000007
20
-57.34999999999998
30
0
40
1.7499999999999716
210
0
220
-0
230
1
0
CIRCLE
5
127
100
AcDbEntity
8
0
100
AcDbCircle
10
-26.349999999999099
20
-26.349999999998793
30
0
40
1.749999999999998
210
0
220
-0
230
1
0
CIRCLE
5
128
100
AcDbEntity
8
0
100
AcDbCircle
10
-204.84999999999999
20
-359.94999999999999
30
0
40
13.000000000000007
210
0
220
-0
230
1
0
CIRCLE
5
129
100
AcDbEntity
8
0
100
AcDbCircle
10
-57.350000000000627
20
-57.350000000000911
30
0
40
1.749999999999998
210
0
220
-0
230
1
0
CIRCLE
5
130
100
AcDbEntity
8
0
100
AcDbCircle
10
-189.35000000000014
20
-344.45000000000016
30
0
40
1.7500000000000071
210
0
220
-0
230
1
0
CIRCLE
5
131
100
AcDbEntity
8
0
100
AcDbCircle
10
-128.35000000000002
20
-377.35000000000002
30
0
40
8.0000000000000071
210
0
220
-0
230
1
0
CIRCLE
5
132
100
AcDbEntity
8
0
100
AcDbCircle
10
-367.84999999999997
20
-41.849999999999987
30
0
40
12.999999999999972
210
0
220
-0
230
1
0
CIRCLE
5
133
100
AcDbEntity
8
0
100
AcDbCircle
10
-220.3499999999998
20
-344.45000000000016
30
0
40
1.7500000000000071
210
0
220
-0
230
1
0
CIRCLE
5
134
100
AcDbEntity
8
0
100
AcDbCircle
10
-352.3500000000007
20
-57.34999999999981
30
0
40
1.7499999999999716
210
0
220
-0
230
1
0
CIRCLE
5
135
100
AcDbEntity
8
0
100
AcDbCircle
10
-41.849999999999987
20
-41.849999999999987
30
0
40
12.999999999999998
210
0
220
-0
230
1
0
CIRCLE
5
136
100
AcDbEntity
8
0
100
AcDbCircle
10
-383.34999999999957
20
-26.349999999999959
30
0
40
1.7499999999999716
210
0
220
-0
230
1
0
CIRCLE
5
137
100
AcDbEntity
8
0
100
AcDbCircle
10
-107.84999999999999
20
-399.85000000000002
30
0
40
1.7500000000000071
210
0
220
-0
230
1
0
CIRCLE
5
138
100
AcDbEntity
8
0
100
AcDbCircle
10
-301.84999999999997
20
-399.85000000000002
30
0
40
1.7500000000000071
210
0
220
-0
230
1
0
ENDSEC
0
SECTION
2
OBJECTS
0
DICTIONARY
5
C
100
AcDbDictionary
3
ACAD_GROUP
350
D
3
ACAD_MLINESTYLE
350
17
0
DICTIONARY
5
D
100
AcDbDictionary
0
DICTIONARY
5
1A
330
C
100
AcDbDictionary
0
DICTIONARY
5
17
100
AcDbDictionary
0
ENDSEC
0
EOF
