0
SECTION
2
HEADER
9
$INSUNITS
70
4
9
$ACADVER
1
AC1014
9
$HANDSEED
5
FFFF
0
ENDSEC
0
SECTION
2
TABLES
0
TABLE
2
VPORT
5
8
100
AcDbSymbolTable
0
ENDTAB
0
TABLE
2
LTYPE
5
5
100
AcDbSymbolTable
0
LTYPE
5
14
100
AcDbSymbolTableRecord
100
AcDbLinetypeTableRecord
2
BYBLOCK
70
0
0
LTYPE
5
15
100
AcDbSymbolTableRecord
100
AcDbLinetypeTableRecord
2
BYLAYER
70
0
0
LTYPE
5
16
100
AcDbSymbolTableRecord
100
AcDbLinetypeTableRecord
2
DASHED
70
0
3
Dashed __ __ __ __ __ __ __ __ __ __ __ __ __ _
72
65
73
2
40
0.75
49
0.5
74
0
49
-0.25
74
0
0
ENDTAB
0
TABLE
2
LAYER
5
2
100
AcDbSymbolTable
70
2
0
LAYER
5
50
100
AcDbSymbolTableRecord
100
AcDbLayerTableRecord
2
0
70
0
62
7
6
CONTINUOUS
0
ENDTAB
0
TABLE
2
STYLE
5
3
100
AcDbSymbolTable
70
1
0
STYLE
5
11
100
AcDbSymbolTableRecord
100
AcDbTextStyleTableRecord
2
STANDARD
70
0
0
ENDTAB
0
TABLE
2
VIEW
5
6
100
AcDbSymbolTable
70
0
0
ENDTAB
0
TABLE
2
UCS
5
7
100
AcDbSymbolTable
70
0
0
ENDTAB
0
TABLE
2
APPID
5
9
100
AcDbSymbolTable
70
2
0
APPID
5
12
100
AcDbSymbolTableRecord
100
AcDbRegAppTableRecord
2
ACAD
70
0
0
ENDTAB
0
TABLE
2
DIMSTYLE
5
A
100
AcDbSymbolTable
70
1
0
ENDTAB
0
TABLE
2
BLOCK_RECORD
5
1
100
AcDbSymbolTable
70
1
0
BLOCK_RECORD
5
1F
100
AcDbSymbolTableRecord
100
AcDbBlockTableRecord
2
*MODEL_SPACE
0
BLOCK_RECORD
5
1B
100
AcDbSymbolTableRecord
100
AcDbBlockTableRecord
2
*PAPER_SPACE
0
ENDTAB
0
ENDSEC
0
SECTION
2
BLOCKS
0
BLOCK
5
20
100
AcDbEntity
100
AcDbBlockBegin
2
*MODEL_SPACE
0
ENDBLK
5
21
100
AcDbEntity
100
AcDbBlockEnd
0
BLOCK
5
1C
100
AcDbEntity
100
AcDbBlockBegin
2
*PAPER_SPACE
0
ENDBLK
5
1D
100
AcDbEntity
100
AcDbBlockEnd
0
ENDSEC
0
SECTION
2
ENTITIES
0
LWPOLYLINE
5
100
100
AcDbEntity
8
0
100
AcDbPolyline
90
32
70
1
43
0.0
10
-458.70000000000027
20
-20.000000011952107
42
0.41421356237307549
10
-459.70000000000033
20
-21.000000011952107
10
-459.70000000000027
20
-438.70000000000027
42
0.41421356237313667
10
-458.70000000000033
20
-439.70000000000027
10
-440.70000000000027
20
-439.70000000000022
42
-0.41421356237309503
10
-439.70000000000027
20
-440.70000000000022
10
-439.70000000000027
20
-458.70000000000027
42
0.41421356237313667
10
-438.70000000000033
20
-459.70000000000027
10
-240.99999999999994
20
-459.70000000000027
42
0.41421356237295975
10
-239.99999999999989
20
-458.70000000000061
10
-239.99999999999329
20
-440.54999999997915
42
-0.41421356236584228
10
-239.00000000001768
20
-439.54999999997943
10
-220.70000000001767
20
-439.54999999953316
42
-0.41421356238034779
10
-219.69999999999322
20
-440.5499999995335
10
-219.69999999999965
20
-458.69999999999993
42
0.41421356237319906
10
-218.69999999999962
20
-459.70000000000027
10
-21.000000000000014
20
-459.70000000000027
42
0.41421356237312495
10
-20.000000000000039
20
-458.70000000000033
10
-20.000000000000014
20
-440.70000000000027
42
-0.41421356237309503
10
-19
20
-439.70000000000027
10
-1.0000000000000009
20
-439.70000000000027
42
0.41421356237302526
10
5.9119376061289586e-14
20
-438.70000000000033
10
0
20
-20.999999999999943
42
0.41421356237308449
10
-1.0000000000000011
20
-19.999999999999979
10
-18.999999999999993
20
-19.999999999999996
42
-0.41421356237309503
10
-19.999999999999996
20
-18.999999999999996
10
-19.999999999999996
20
-0.99999999999999867
42
0.41421356237309276
10
-20.999999999999996
20
3.3306690738754696e-15
10
-438.69999999999919
20
0
42
0.41421356237343993
10
-439.69999999999925
20
-1.0000000000011087
10
-439.69999999997918
20
-19.000000011950998
42
-0.41421356237341955
10
-440.69999999997918
20
-20.000000011952107
0
CIRCLE
5
101
100
AcDbEntity
8
0
100
AcDbCircle
10
-260.15000000000043
20
-449.85000000000014
30
0
40
2.7499999999999858
210
0
220
-0
230
1
0
CIRCLE
5
102
100
AcDbEntity
8
0
100
AcDbCircle
10
-419.55000000000041
20
-449.85000000000014
30
0
40
2.7499999999999858
210
0
220
-0
230
1
0
CIRCLE
5
103
100
AcDbEntity
8
0
100
AcDbCircle
10
-199.54999999999998
20
-449.85000000000014
30
0
40
2.7500000000000036
210
0
220
-0
230
1
0
CIRCLE
5
104
100
AcDbEntity
8
0
100
AcDbCircle
10
-40.15000000000002
20
-449.85000000000014
30
0
40
2.7500000000000036
210
0
220
-0
230
1
0
CIRCLE
5
105
100
AcDbEntity
8
0
100
AcDbCircle
10
-449.8500000000007
20
-419.70000000000027
30
0
40
2.7499999999999858
210
0
220
-0
230
1
0
CIRCLE
5
106
100
AcDbEntity
8
0
100
AcDbCircle
10
-449.8500000000007
20
-324.77500000000009
30
0
40
2.7499999999999858
210
0
220
-0
230
1
0
CIRCLE
5
107
100
AcDbEntity
8
0
100
AcDbCircle
10
-449.8500000000007
20
-229.85000000000008
30
0
40
2.7499999999999858
210
0
220
-0
230
1
0
CIRCLE
5
108
100
AcDbEntity
8
0
100
AcDbCircle
10
-449.8500000000007
20
-134.92500000000007
30
0
40
2.7499999999999858
210
0
220
-0
230
1
0
CIRCLE
5
109
100
AcDbEntity
8
0
100
AcDbCircle
10
-449.8500000000007
20
-40.000000000000078
30
0
40
2.7499999999999858
210
0
220
-0
230
1
0
CIRCLE
5
110
100
AcDbEntity
8
0
100
AcDbCircle
10
-419.70000000000027
20
-9.8499999999986301
30
0
40
2.7500000000000036
210
0
220
-0
230
1
0
CIRCLE
5
111
100
AcDbEntity
8
0
100
AcDbCircle
10
-324.77499999999998
20
-9.8499999999989747
30
0
40
2.7500000000000036
210
0
220
-0
230
1
0
CIRCLE
5
112
100
AcDbEntity
8
0
100
AcDbCircle
10
-229.84999999999999
20
-9.8499999999993157
30
0
40
2.7500000000000036
210
0
220
-0
230
1
0
CIRCLE
5
113
100
AcDbEntity
8
0
100
AcDbCircle
10
-134.92500000000001
20
-9.8499999999996586
30
0
40
2.7500000000000036
210
0
220
-0
230
1
0
CIRCLE
5
114
100
AcDbEntity
8
0
100
AcDbCircle
10
-40.000000000000014
20
-9.8500000000000014
30
0
40
2.7500000000000036
210
0
220
-0
230
1
0
CIRCLE
5
115
100
AcDbEntity
8
0
100
AcDbCircle
10
-9.8500000000000831
20
-419.70000000000027
30
0
40
2.7499999999999991
210
0
220
-0
230
1
0
CIRCLE
5
116
100
AcDbEntity
8
0
100
AcDbCircle
10
-9.8500000000000565
20
-324.77499999999998
30
0
40
2.7499999999999991
210
0
220
-0
230
1
0
CIRCLE
5
117
100
AcDbEntity
8
0
100
AcDbCircle
10
-9.8500000000000298
20
-229.84999999999999
30
0
40
2.7499999999999991
210
0
220
-0
230
1
0
CIRCLE
5
118
100
AcDbEntity
8
0
100
AcDbCircle
10
-9.8500000000000032
20
-134.92500000000001
30
0
40
2.7499999999999991
210
0
220
-0
230
1
0
CIRCLE
5
119
100
AcDbEntity
8
0
100
AcDbCircle
10
-9.8499999999999766
20
-40
30
0
40
2.7499999999999991
210
0
220
-0
230
1
0
CIRCLE
5
120
100
AcDbEntity
8
0
100
AcDbCircle
10
-402.34999999999957
20
-26.350000000000247
30
0
40
1.7499999999999716
210
0
220
-0
230
1
0
CIRCLE
5
121
100
AcDbEntity
8
0
100
AcDbCircle
10
-245.34999999999968
20
-425.45000000000073
30
0
40
1.7500000000000071
210
0
220
-0
230
1
0
CIRCLE
5
122
100
AcDbEntity
8
0
100
AcDbCircle
10
-26.350000000000627
20
-57.349999999998801
30
0
40
1.749999999999998
210
0
220
-0
230
1
0
CIRCLE
5
123
100
AcDbEntity
8
0
100
AcDbCircle
10
-57.349999999999966
20
-26.350000000000541
30
0
40
1.749999999999998
210
0
220
-0
230
1
0
CIRCLE
5
124
100
AcDbEntity
8
0
100
AcDbCircle
10
-214.34999999999974
20
-425.45000000000073
30
0
40
1.7500000000000071
210
0
220
-0
230
1
0
CIRCLE
5
125
100
AcDbEntity
8
0
100
AcDbCircle
10
-306.35000000000019
20
-427.35000000000014
30
0
40
7.9999999999999716
210
0
220
-0
230
1
0
CIRCLE
5
126
100
AcDbEntity
8
0
100
AcDbCircle
10
-433.35000000000093
20
-57.350000000000414
30
0
40
1.7499999999999716
210
0
220
-0
230
1
0
CIRCLE
5
127
100
AcDbEntity
8
0
100
AcDbCircle
10
-26.349999999999099
20
-26.349999999998793
30
0
40
1.749999999999998
210
0
220
-0
230
1
0
CIRCLE
5
128
100
AcDbEntity
8
0
100
AcDbCircle
10
-229.85000000000014
20
-409.95000000000005
30
0
40
13.000000000000007
210
0
220
-0
230
1
0
CIRCLE
5
129
100
AcDbEntity
8
0
100
AcDbCircle
10
-57.350000000000627
20
-57.350000000000911
30
0
40
1.749999999999998
210
0
220
-0
230
1
0
CIRCLE
5
130
100
AcDbEntity
8
0
100
AcDbCircle
10
-214.35000000000002
20
-394.4500000000005
30
0
40
1.7500000000000071
210
0
220
-0
230
1
0
CIRCLE
5
131
100
AcDbEntity
8
0
100
AcDbCircle
10
-153.35000000000008
20
-427.35000000000014
30
0
40
8.0000000000000071
210
0
220
-0
230
1
0
CIRCLE
5
132
100
AcDbEntity
8
0
100
AcDbCircle
10
-417.85000000000025
20
-41.850000000000023
30
0
40
12.999999999999972
210
0
220
-0
230
1
0
CIRCLE
5
133
100
AcDbEntity
8
0
100
AcDbCircle
10
-245.34999999999968
20
-394.4500000000005
30
0
40
1.7500000000000071
210
0
220
-0
230
1
0
CIRCLE
5
134
100
AcDbEntity
8
0
100
AcDbCircle
10
-402.3500000000007
20
-57.350000000000243
30
0
40
1.7499999999999716
210
0
220
-0
230
1
0
CIRCLE
5
135
100
AcDbEntity
8
0
100
AcDbCircle
10
-41.849999999999987
20
-41.849999999999987
30
0
40
12.999999999999998
210
0
220
-0
230
1
0
CIRCLE
5
136
100
AcDbEntity
8
0
100
AcDbCircle
10
-433.3499999999998
20
-26.350000000000378
30
0
40
1.7499999999999716
210
0
220
-0
230
1
0
CIRCLE
5
137
100
AcDbEntity
8
0
100
AcDbCircle
10
-132.84999999999997
20
-449.85000000000014
30
0
40
1.7500000000000071
210
0
220
-0
230
1
0
CIRCLE
5
138
100
AcDbEntity
8
0
100
AcDbCircle
10
-326.85000000000031
20
-449.85000000000014
30
0
40
1.7500000000000071
210
0
220
-0
230
1
0
ENDSEC
0
SECTION
2
OBJECTS
0
DICTIONARY
5
C
100
AcDbDictionary
3
ACAD_GROUP
350
D
3
ACAD_MLINESTYLE
350
17
0
DICTIONARY
5
D
100
AcDbDictionary
0
DICTIONARY
5
1A
330
C
100
AcDbDictionary
0
DICTIONARY
5
17
100
AcDbDictionary
0
ENDSEC
0
EOF
